<svg width="1112" height="501" viewBox="0 0 1112 501" fill="none" xmlns="http://www.w3.org/2000/svg">
<g clip-path="url(#clip0_3546_63866)">
<path d="M1112 0.399902H0V500.4H1112V0.399902Z" fill="white"/>
<path d="M125.1 257.2C125.1 236.9 130.7 220.7 141.8 208.4C152.8 196.2 168.5 190.1 188.9 190.1C200.3 190.1 212.2 192.5 224.5 197.2L219.3 214.9C208.9 210.9 198.8 208.9 189.1 208.9C176 208.9 166.2 213 159.5 221.2C153 229.4 149.7 241.3 149.7 256.8C149.7 272.1 153.2 283.9 160.1 292.2C167 300.4 177 304.5 190.1 304.5C201.5 304.5 212.7 301.4 223.6 295.3L222.8 315.1C213.1 320.4 202 323 189.5 323C168.7 323 152.7 317.4 141.6 306.1C130.5 294.7 125.1 278.4 125.1 257.2ZM319.4 303.8V320.5H235.8V303.8H264.8V222H279.8L284 237.4C291.4 225.5 302.1 219.5 316.1 219.5C322.5 219.5 328 220.3 332.6 222L328.4 239.1C324 238 319.8 237.4 315.9 237.4C306.7 237.4 299.6 240.7 294.6 247.2C289.7 253.7 287.3 261.6 287.3 270.7V303.8H319.4ZM439.3 270.3L433.3 277.8H372.3C374.1 296 384.6 305.1 403.8 305.1C414.6 305.1 425.3 302.9 435.7 298.6L434.7 316.9C425.1 320.9 414.5 322.9 402.8 322.9C385.2 322.9 371.7 318.5 362.4 309.6C353.2 300.6 348.6 287.6 348.6 270.6C348.6 255.3 352.7 243 360.9 233.5C369.2 224.1 381 219.3 396.3 219.3C410.9 219.3 421.7 224.1 428.8 233.7C435.8 243.4 439.3 255.6 439.3 270.3ZM396.2 237.4C382.4 237.4 374.5 245.6 372.4 262H417.4C417.7 254.4 415.9 248.4 412 244.1C408.3 239.6 403 237.4 396.2 237.4ZM501.3 323C487.4 323 476.4 318.3 468.4 309C460.5 299.7 456.5 287.1 456.5 271.3C456.5 255.3 460.5 242.7 468.4 233.4C476.5 224.1 487.4 219.4 501.3 219.4C512 219.4 520.7 222.6 527.6 229V187.1L550.1 177.9V320.4H535.5L533.2 306.6C526.4 317.6 515.8 323 501.3 323ZM529.7 271.3C529.7 260.5 527.5 252.1 523.2 246.3C518.9 240.3 512.7 237.3 504.7 237.3C488.4 237.3 480.3 248.6 480.3 271.3C480.3 293.8 488.4 305.1 504.7 305.1C512.6 305.1 518.7 302.2 523 296.3C527.5 290.4 529.7 282 529.7 271.3ZM657.3 303.8V320.5H572.3V303.8H603.6V238.8H572.3V222H626.1V303.9H657.3V303.8ZM600.4 193.4C600.4 190.1 601.8 187.2 604.6 184.9C607.5 182.4 610.9 181.1 614.8 181.1C618.8 181.1 622.2 182.4 625 184.9C627.8 187.3 629.2 190.1 629.2 193.4C629.2 196.9 627.8 199.8 625 202.2C622.2 204.6 618.8 205.7 614.8 205.7C610.8 205.7 607.4 204.5 604.6 202.2C601.8 199.8 600.4 196.9 600.4 193.4ZM724.6 323C710.3 323 699.6 317.7 692.5 307L690.4 320.5H675.6V187.2L698.1 178V229C704.9 222.6 713.7 219.4 724.6 219.4C738.4 219.4 749.2 224.1 757.1 233.6C765.2 242.9 769.2 255.5 769.2 271.3C769.2 287.1 765.2 299.7 757.1 309C749.1 318.4 738.3 323 724.6 323ZM696.2 271.3C696.2 282 698.4 290.3 702.7 296.3C707 302.1 713.1 305.1 721 305.1C728.9 305.1 735 302.3 739.1 296.6C743.4 290.9 745.6 282.5 745.6 271.4C745.6 248.8 737.4 237.4 721 237.4C713.1 237.4 707 240.4 702.7 246.4C698.4 252.2 696.2 260.5 696.2 271.3ZM822.4 277.8L822 197.4H786.4V180.5H844.7V276.3C844.8 287 847.3 294.5 852 298.8C856.9 303 865 305.1 876.4 305.1L874.7 323C856.4 323 843.1 319.5 834.9 312.6C826.7 305.6 822.6 294 822.4 277.8ZM986.9 270.3L980.9 277.8H919.9C921.7 296 932.2 305.1 951.4 305.1C962.2 305.1 972.9 302.9 983.3 298.6L982.3 316.9C972.7 320.9 962.1 322.9 950.4 322.9C932.8 322.9 919.3 318.5 910 309.6C900.8 300.6 896.2 287.6 896.2 270.6C896.2 255.3 900.3 243 908.5 233.5C916.8 224.1 928.6 219.3 943.9 219.3C958.5 219.3 969.3 224.1 976.4 233.7C983.5 243.3 986.9 255.6 986.9 270.3ZM943.8 237.4C930 237.4 922.1 245.6 920 262H965C965.3 254.4 963.5 248.4 959.6 244.1C955.9 239.6 950.6 237.4 943.8 237.4Z" fill="black"/>
</g>
<defs>
<clipPath id="clip0_3546_63866">
<rect width="1112" height="501" fill="white"/>
</clipPath>
</defs>
</svg>
