<svg width="1250" height="500" viewBox="0 0 1250 500" fill="none" xmlns="http://www.w3.org/2000/svg">
<g clip-path="url(#clip0_3546_63826)">
<path d="M1250 0H0V500H1250V0Z" fill="black"/>
<path d="M164.6 255.5C164.6 237.3 169.6 222.7 179.6 211.7C189.5 200.7 203.6 195.2 221.9 195.2C232.1 195.2 242.8 197.3 253.9 201.6L249.2 217.5C239.8 213.9 230.8 212.1 222.1 212.1C210.4 212.1 201.5 215.8 195.5 223.1C189.6 230.5 186.7 241.1 186.7 255.1C186.7 268.8 189.8 279.4 196.1 286.9C202.3 294.3 211.3 297.9 223.1 297.9C233.3 297.9 243.4 295.2 253.2 289.7L252.5 307.5C243.8 312.2 233.8 314.6 222.6 314.6C203.9 314.6 189.5 309.5 179.6 299.4C169.5 289.2 164.6 274.6 164.6 255.5ZM339.2 297.4V312.4H264.1V297.4H290.1V223.8H303.6L307.3 237.7C313.9 227 323.5 221.6 336.1 221.6C341.8 221.6 346.8 222.3 350.9 223.8L347.2 239.1C343.2 238.1 339.5 237.6 336 237.6C327.8 237.6 321.4 240.5 316.9 246.4C312.5 252.3 310.3 259.3 310.3 267.6V297.4H339.2ZM446.9 267.3L441.5 274H386.7C388.3 290.3 397.7 298.5 415 298.5C424.7 298.5 434.3 296.6 443.6 292.7L442.7 309.2C434.1 312.8 424.5 314.6 414.1 314.6C398.3 314.6 386.1 310.6 377.8 302.6C369.6 294.5 365.4 282.8 365.4 267.6C365.4 253.9 369.1 242.8 376.4 234.3C383.9 225.8 394.5 221.6 408.2 221.6C421.3 221.6 431 225.9 437.4 234.5C443.8 243.1 446.9 254.1 446.9 267.3ZM408.2 237.7C395.8 237.7 388.7 245.1 386.9 259.8H427.3C427.5 252.9 425.9 247.6 422.4 243.7C419 239.7 414.3 237.7 408.2 237.7ZM502.6 314.6C490.1 314.6 480.3 310.4 473 302.1C465.9 293.7 462.3 282.4 462.3 268.2C462.3 253.9 465.9 242.5 473 234.1C480.2 225.7 490.1 221.6 502.6 221.6C512.2 221.6 520.1 224.5 526.2 230.2V192.6L546.4 184.4V312.4H533.3L531.2 300C525.2 309.8 515.6 314.6 502.6 314.6ZM528.1 268.2C528.1 258.5 526.2 251 522.3 245.7C518.4 240.3 512.9 237.7 505.6 237.7C491 237.7 483.7 247.9 483.7 268.2C483.7 288.4 491 298.5 505.6 298.5C512.7 298.5 518.2 295.9 522.1 290.6C526.1 285.3 528.1 277.8 528.1 268.2ZM642.8 297.4V312.4H566.4V297.4H594.5V239H566.4V223.8H614.7V297.4H642.8ZM591.7 198.2C591.7 195.2 592.9 192.6 595.4 190.5C598 188.3 601.1 187.1 604.6 187.1C608.2 187.1 611.3 188.2 613.8 190.5C616.3 192.6 617.5 195.2 617.5 198.2C617.5 201.3 616.3 203.9 613.8 206.1C611.3 208.2 608.2 209.3 604.6 209.3C601 209.3 597.9 208.2 595.4 206.1C592.9 204 591.7 201.3 591.7 198.2ZM703.2 314.6C690.3 314.6 680.7 309.8 674.4 300.2L672.5 312.4H659.2V192.6L679.4 184.4V230.3C685.5 224.6 693.4 221.7 703.2 221.7C715.6 221.7 725.3 225.9 732.4 234.4C739.6 242.8 743.3 254.1 743.3 268.3C743.3 282.5 739.7 293.8 732.4 302.2C725.3 310.5 715.5 314.6 703.2 314.6ZM677.7 268.2C677.7 277.8 679.6 285.3 683.5 290.7C687.4 295.9 692.9 298.6 700 298.6C707.1 298.6 712.5 296 716.3 290.9C720.2 285.8 722.1 278.2 722.1 268.3C722.1 248 714.7 237.8 700 237.8C692.9 237.8 687.4 240.5 683.5 245.8C679.7 251 677.7 258.5 677.7 268.2ZM791.1 274L790.7 201.8H758.7V186.6H811.1V272.7C811.2 282.3 813.4 289 817.7 292.9C822.1 296.6 829.4 298.5 839.6 298.5L838.1 314.6C821.6 314.6 809.7 311.5 802.4 305.2C795.1 298.9 791.2 288.6 791.1 274ZM938.9 267.3L933.5 274H878.7C880.3 290.3 889.7 298.5 907 298.5C916.7 298.5 926.3 296.6 935.6 292.7L934.7 309.2C926.1 312.8 916.5 314.6 906.1 314.6C890.3 314.6 878.1 310.6 869.8 302.6C861.6 294.5 857.4 282.8 857.4 267.6C857.4 253.9 861.1 242.8 868.4 234.3C875.9 225.8 886.5 221.6 900.2 221.6C913.3 221.6 923 225.9 929.4 234.5C935.7 243.1 938.9 254.1 938.9 267.3ZM900.1 237.7C887.7 237.7 880.6 245.1 878.8 259.8H919.2C919.4 252.9 917.8 247.6 914.3 243.7C911 239.7 906.3 237.7 900.1 237.7Z" fill="white"/>
<path d="M1038.6 179.8H991.799V226.6H1038.6V179.8Z" fill="white"/>
<path d="M1038.6 273.4H991.799V320.2H1038.6V273.4Z" fill="white"/>
<path d="M1085.4 226.6H1038.6V273.4H1085.4V226.6Z" fill="white"/>
</g>
<defs>
<clipPath id="clip0_3546_63826">
<rect width="1250" height="500" fill="white"/>
</clipPath>
</defs>
</svg>
